<?xml version="1.0" encoding="UTF-8"?>
<svg id="Layer_2" data-name="Layer 2" xmlns="http://www.w3.org/2000/svg" viewBox="0 0 71.05 77.56">
  <defs>
    <style>
      .cls-clm-logo {
        fill: #e9e8e3;
      }
    </style>
  </defs>
  <g id="Layer_1-2" data-name="Layer 1">
    <g>
      <g>
        <path class="cls-clm-logo" d="M30.21,14.56c2.74-.97,5.65-1.48,8.57-1.48h0c6.82,0,13.24,2.65,18.09,7.46,.03,.02,.05,.05,.08,.07,.91,.91,1.76,1.9,2.54,2.96,.23,.31,.45,.63,.67,.95l10.89-7.26C64.09,6.86,52.24,0,38.78,0c-2.95,0-5.81,.33-8.57,.95V14.56Z"/>
        <path class="cls-clm-logo" d="M14.5,44.23V8.54C5.66,15.65,0,26.55,0,38.78c0,1.85,.13,3.67,.38,5.45H14.5Z"/>
        <path class="cls-clm-logo" d="M14.5,51.27H2.06c2.4,7.05,6.76,13.18,12.45,17.74v-17.74Z"/>
        <path class="cls-clm-logo" d="M60.15,53.03s-.05,.08-.07,.11c-4.8,7.1-12.76,11.33-21.3,11.33-1.31,0-2.62-.1-3.91-.3-1.6-.24-3.15-.64-4.67-1.18v13.6c2.76,.62,5.63,.95,8.57,.95,13.46,0,25.31-6.86,32.27-17.27l-10.89-7.26Z"/>
      </g>
      <path class="cls-clm-logo" d="M38.78,19.13c-10.85,0-19.65,8.8-19.65,19.65s8.8,19.65,19.65,19.65,19.65-8.8,19.65-19.65-8.8-19.65-19.65-19.65Zm12.11,26.63l-9.55-2.56-2.56,9.55-2.56-9.55-9.55,2.56,6.99-6.99-6.99-6.99,9.55,2.56,2.56-9.55,2.56,9.55,9.55-2.56-6.99,6.99,6.99,6.99Z"/>
    </g>
  </g>
</svg>