<?xml version="1.0" encoding="UTF-8"?>
<svg id="twitter-icon" data-name="Layer 2" xmlns="http://www.w3.org/2000/svg" viewBox="0 0 39.03 31.71">
  <defs>
    <style>
      .cls-twit {
        fill: #fff;
      }
    </style>
  </defs>
  <g id="Layer_1-2" data-name="Layer 1">
    <g id="Logo">
      <path id="white_background" data-name="white background" class="cls-twit" d="M35.03,7.9c.02,.34,.02,.69,.02,1.04,0,10.58-8.05,22.78-22.78,22.78h0c-4.35,0-8.61-1.25-12.27-3.6,.63,.08,1.27,.11,1.91,.12,3.61,0,7.11-1.21,9.94-3.43-3.43-.07-6.43-2.3-7.48-5.56,1.2,.23,2.44,.18,3.62-.14-3.74-.75-6.42-4.04-6.42-7.85v-.1c1.11,.62,2.36,.96,3.63,1C1.68,9.8,.59,5.12,2.72,1.46,6.78,6.46,12.78,9.5,19.22,9.83c-.65-2.78,.24-5.7,2.32-7.65,3.23-3.03,8.3-2.88,11.33,.35,1.79-.35,3.51-1.01,5.09-1.94-.6,1.85-1.85,3.43-3.52,4.43,1.59-.19,3.14-.61,4.6-1.26-1.08,1.61-2.43,3.01-4,4.15Z"/>
    </g>
  </g>
</svg>